<?xml version="1.0" encoding="UTF-8" standalone="no"?>
<!-- Created with Inkscape (http://www.inkscape.org/) -->

<svg
   xmlns:dc="http://purl.org/dc/elements/1.1/"
   xmlns:cc="http://creativecommons.org/ns#"
   xmlns:rdf="http://www.w3.org/1999/02/22-rdf-syntax-ns#"
   xmlns:svg="http://www.w3.org/2000/svg"
   xmlns="http://www.w3.org/2000/svg"
   xmlns:sodipodi="http://sodipodi.sourceforge.net/DTD/sodipodi-0.dtd"
   xmlns:inkscape="http://www.inkscape.org/namespaces/inkscape"
   width="182.47549"
   height="52.066715"
   id="svg2"
   version="1.1"
   inkscape:version="0.48.4 r9939"
   sodipodi:docname="logo.svg"
   inkscape:export-filename="C:\Sites\rails_projects\rokids\app\assets\images\bitmap.png"
   inkscape:export-xdpi="90"
   inkscape:export-ydpi="90">
  <defs
     id="defs4" />
  <sodipodi:namedview
     id="base"
     pagecolor="#ffffff"
     bordercolor="#666666"
     borderopacity="1.0"
     inkscape:pageopacity="0.0"
     inkscape:pageshadow="2"
     inkscape:zoom="3.959798"
     inkscape:cx="136.93097"
     inkscape:cy="18.071657"
     inkscape:document-units="px"
     inkscape:current-layer="layer5"
     showgrid="false"
     inkscape:window-width="1366"
     inkscape:window-height="705"
     inkscape:window-x="-4"
     inkscape:window-y="-4"
     inkscape:window-maximized="1"
     inkscape:object-paths="true"
     inkscape:snap-global="false"
     fit-margin-top="0"
     fit-margin-left="0"
     fit-margin-right="0"
     fit-margin-bottom="0" />
  <metadata
     id="metadata7">
    <rdf:RDF>
      <cc:Work
         rdf:about="">
        <dc:format>image/svg+xml</dc:format>
        <dc:type
           rdf:resource="http://purl.org/dc/dcmitype/StillImage" />
        <dc:title />
      </cc:Work>
    </rdf:RDF>
  </metadata>
  <g
     inkscape:groupmode="layer"
     id="layer4"
     inkscape:label="bg"
     style="display:inline"
     transform="translate(1.5557708,4.8263378)">
    <path
       sodipodi:type="arc"
       style="fill:#f2f2f2;fill-opacity:0.83529412;stroke-width:1.16953802;stroke-linecap:round;stroke-linejoin:bevel;stroke-miterlimit:4;stroke-dasharray:none;stroke-dashoffset:0"
       id="path2995"
       sodipodi:cx="29.553572"
       sodipodi:cy="27.880243"
       sodipodi:rx="33.125"
       sodipodi:ry="33.125"
       d="m 62.678572,27.880243 c 0,18.294433 -14.830568,33.125 -33.125,33.125 -18.294433,0 -33.1250003,-14.830567 -33.1250003,-33.125 0,-18.294432 14.8305673,-33.1249997 33.1250003,-33.1249997 18.294432,0 33.125,14.8305677 33.125,33.1249997 z"
       transform="matrix(0.78591266,0,0,0.78591266,1.2510599,-0.70441716)" />
  </g>
  <g
     inkscape:groupmode="layer"
     id="layer3"
     inkscape:label="base"
     style="display:none"
     transform="translate(-27.786691,-17.554927)">
    <path
       sodipodi:type="arc"
       style="fill:#3498df;fill-opacity:0.83529412;display:inline"
       id="path2991"
       sodipodi:cx="356.07877"
       sodipodi:cy="578.09558"
       sodipodi:rx="213.64726"
       sodipodi:ry="213.64726"
       d="m 569.72603,578.09558 c 0,117.99413 -95.65314,213.64726 -213.64726,213.64726 -117.99413,0 -213.64727,-95.65313 -213.64727,-213.64726 0,-117.99412 95.65314,-213.64726 213.64727,-213.64726 117.99412,0 213.64726,95.65314 213.64726,213.64726 z"
       transform="translate(14.647222,-53.033023)" />
  </g>
  <g
     inkscape:label="Layer 1"
     inkscape:groupmode="layer"
     id="layer1"
     style="display:inline"
     transform="translate(-27.786691,-17.554927)">
    <path
       style="fill:none;stroke:#000000;stroke-width:0.91915464;stroke-linecap:round;stroke-linejoin:bevel;stroke-miterlimit:4;stroke-opacity:1;stroke-dasharray:none;stroke-dashoffset:0"
       d="m 68.621319,34.33158 c 0,0 -3.940273,-3.302578 -4.305129,-5.423338 -0.663262,-2.084201 -0.82874,-5.966082 0.111825,-6.150183 0.587053,-0.212726 4.165439,2.925037 4.808323,5.087877 0.621696,1.948349 1.090989,4.027304 0.670932,6.15018"
       id="path3786"
       inkscape:connector-curvature="0"
       sodipodi:nodetypes="ccccc" />
    <path
       style="fill:none;stroke:#000000;stroke-width:0.91915464;stroke-linecap:round;stroke-linejoin:bevel;stroke-miterlimit:4;stroke-opacity:1;stroke-dasharray:none;stroke-dashoffset:0"
       d="m 64.050848,50.582536 c 1.643676,-0.146885 3.648676,1.94618 6.739846,2.133979 1.405394,-0.153224 3.217056,-2.293194 4.156443,-3.94929 0.588426,-0.804509 0.805064,-1.7916 1.313918,-2.634328 0.312994,-0.51836 1.142321,-0.07238 1.131511,-0.483021 -0.02032,-0.772275 -0.107988,-0.781939 -0.661705,-1.252797 -0.886427,-0.263802 -1.128145,-0.137993 -1.621793,0.251803 -0.487876,0.385231 -1.2854,1.380205 -1.941995,1.873181 -0.874235,0.65639 -1.590296,0.758922 -1.881747,0.606215 -1.940079,-1.126297 -1.86639,-1.651398 -4.01322,-1.721835"
       id="path3792"
       inkscape:connector-curvature="0"
       sodipodi:nodetypes="cccsscsscc" />
  </g>
  <g
     inkscape:groupmode="layer"
     id="layer2"
     inkscape:label="1"
     style="display:inline"
     transform="translate(-27.786691,-17.554927)">
    <path
       style="fill:none;stroke:#000000;stroke-width:0.91915464;stroke-linecap:round;stroke-linejoin:bevel;stroke-miterlimit:4;stroke-opacity:1;stroke-dasharray:none;stroke-dashoffset:0"
       d="m 50.60494,64.728434 c 0,0 -3.186615,-0.342406 -4.110265,-5.93545 -0.511198,-3.095501 2.373882,-8.358453 4.649221,-10.309086 2.358022,-2.021517 6.725906,-5.55493 8.622855,-8.465681 2.159864,-3.314181 2.5203,-9.324601 1.973054,-11.751677 -0.754542,-3.346421 -1.916789,-5.095703 -4.685025,-6.566971 -1.408686,-0.74869 -5.022969,-1.082905 -6.633137,-1.090106 -3.277028,0.428141 -2.744412,0.315352 -5.521874,1.349119 0,0 -1.610521,0.741425 -0.708251,0.496566 1.075026,-0.291746 2.525567,0.03645 2.335541,1.599033 -0.193545,1.591484 -4.51318,1.346206 -8.834455,3.825972 -2.282153,1.309612 -5.199216,5.797856 -5.378868,6.657549 0,0 -2.438354,5.201051 -2.007004,10.07246 0.685634,7.743107 2.608062,10.284736 5.646984,14.480881 1.799196,2.484334 6.229212,5.499119 9.24158,6.55408 1.958709,0.685959 6.086062,1.976184 9.544779,1.612239 1.611517,-0.169571 4.720009,-0.407317 7.212216,-1.344983 2.000032,-0.752489 2.993564,-1.486249 4.90361,-2.486192 2.659507,-1.392302 3.621188,-2.924291 3.621188,-2.924291 0,0 -0.626763,-0.39006 -1.127811,-0.516764 -0.988002,-0.249843 -1.617626,-0.252545 -2.9904,0.841471 -1.845991,1.471141 -1.42147,1.94653 -3.73492,2.371895 -0.481797,-0.02106 -2.778976,-0.04235 -2.346602,-0.246891 2.180092,-1.031369 3.678301,-3.085402 4.552265,-5.572285 0.518753,-2.0392 0.676095,-3.279816 -0.75281,-5.22121 -1.931511,-2.624265 -6.48564,-2.515983 -6.48564,-2.515983"
       id="path3774"
       inkscape:connector-curvature="0"
       sodipodi:nodetypes="csssssccssscsssssscsscscsc" />
    <g
       id="g3781"
       transform="matrix(0.11069759,0,0,0.11069759,12.862584,-14.35166)"
       style="stroke-width:8.30329418;stroke-linecap:round;stroke-linejoin:bevel;stroke-miterlimit:4;stroke-dasharray:none;stroke-dashoffset:0">
      <path
         sodipodi:nodetypes="cssccssscsc"
         inkscape:connector-curvature="0"
         id="path3778"
         d="m 472.80676,513.6928 c 0,0 -7.08421,-11.00645 -11.73533,-25.25918 -4.73713,-14.5163 -1.72542,-36.20415 8.92857,-47.14287 6.52217,-6.69647 12.76756,-11.45842 19.50116,-14.18405 m 27.53456,-2.60166 c 15.41342,1.3925 24.20446,4.83808 36.17856,14.64285 9.55445,7.82348 15.65863,23.35674 18.57144,35.35715 1.92265,7.92107 3.43764,14.50006 4.99999,22.5 1.04168,5.33386 4.00512,9.3791 5.35715,14.64286 -3.3774,14.54896 -19.90592,19.56701 -38.21058,21.11521 -10.68984,0.90414 -23.72835,-1.29121 -44.28943,-11.82949"
         style="fill:none;stroke:#000000;stroke-width:8.30329418;stroke-linecap:round;stroke-linejoin:bevel;stroke-miterlimit:4;stroke-opacity:1;stroke-dasharray:none;stroke-dashoffset:0" />
      <path
         sodipodi:nodetypes="cssscccccsc"
         inkscape:connector-curvature="0"
         id="path3776"
         d="m 305.71428,638.07647 c 0,0 6.73913,-22.43914 25.00001,-43.57142 13.51587,-15.64115 30.40009,-27.7155 50,-34.28572 18.11065,-6.071 31.04279,-7.91031 49.28571,-13.57144 21.2229,-6.58588 34.69929,-17.3871 40.30676,-36.52652 m 57.01,21.44011 c 0.7349,7.52674 1.43185,15.38222 1.57053,23.65854 m -8.3646,51.13163 c -2.87947,7.82841 -6.66484,16.00836 -11.59411,24.58196 -9.62725,15.27726 -21.81886,26.25572 -35.24548,37.55081 -16.05321,13.50472 -20.95033,14.92295 -32.59372,21.73799"
         style="fill:none;stroke:#000000;stroke-width:8.30329418;stroke-linecap:round;stroke-linejoin:bevel;stroke-miterlimit:4;stroke-opacity:1;stroke-dasharray:none;stroke-dashoffset:0" />
    </g>
    <path
       style="fill:#ffffff;fill-opacity:0.83529412;stroke-width:0.616;stroke-linecap:round;stroke-linejoin:bevel;stroke-miterlimit:4;stroke-dasharray:none;stroke-dashoffset:0"
       d="M 50.712482,66.761521 C 48.293379,66.345394 45.120858,65.37494 43.489241,64.551978 41.252286,63.423692 38.781037,61.628502 37.231217,60.00596 36.357866,59.091628 34.949902,57.199077 33.827168,55.430317 31.881367,52.364898 30.838482,48.58082 30.684019,44.025514 c -0.06579,-1.940449 -0.03426,-2.463826 0.232151,-3.852992 0.340755,-1.776817 0.918754,-3.691435 1.607142,-5.323666 0.789975,-1.873101 2.951322,-4.795083 4.473938,-6.04843 0.947205,-0.779697 2.840629,-1.672428 4.873716,-2.297908 0.887659,-0.273089 2.168452,-0.665685 2.846204,-0.872434 1.640034,-0.500299 2.065751,-0.887907 2.065751,-1.880854 0,-0.615706 -0.06251,-0.788866 -0.410233,-1.136598 -0.225625,-0.225625 -0.522447,-0.410229 -0.659602,-0.410229 -0.468461,0 0.0047,-0.249636 1.140005,-0.601416 2.406497,-0.745691 4.829342,-0.819317 7.83397,-0.238062 3.516132,0.680208 5.516494,2.579315 6.577441,6.2445 0.456348,1.576518 0.44962,5.172543 -0.01373,7.36606 -0.939789,4.448515 -2.089264,6.071307 -7.959964,11.237638 -3.074817,2.705901 -3.833884,3.511217 -4.810251,5.103344 -1.743192,2.842561 -2.567487,5.589999 -2.26399,7.54606 0.311576,2.008177 1.005695,3.601143 2.070136,4.750867 1.067358,1.152875 2.566173,1.816933 2.566173,1.13696 0,-0.175937 -0.175298,-0.316073 -0.550131,-0.439779 -0.939762,-0.310151 -1.874683,-1.261795 -2.516303,-2.561323 -1.132086,-2.29291 -1.27963,-4.207225 -0.471848,-6.122098 1.762246,-4.177461 4.886895,-6.916916 9.222116,-8.08525 5.324918,-1.435059 6.077015,-1.735676 7.249891,-2.897788 0.359612,-0.356314 0.787183,-0.909216 0.950157,-1.228673 0.162975,-0.319457 0.389766,-0.580834 0.503978,-0.580834 0.306596,0 0.253051,-0.444801 -0.137709,-1.143943 -0.720271,-1.28871 -1.080016,-2.504222 -1.072681,-3.624411 0.01179,-1.797428 0.460003,-2.804025 1.741235,-3.91027 1.141494,-0.985588 1.136187,-0.985123 1.993574,-0.174241 0.490952,0.46432 0.828515,0.682084 0.971978,0.627032 0.120895,-0.04639 0.219803,-0.13553 0.219803,-0.198092 0,-0.06256 -0.678902,-0.79801 -1.508671,-1.634331 -1.776701,-1.790731 -2.419174,-2.70852 -2.832329,-4.046067 -0.534891,-1.731658 -0.677954,-4.646463 -0.266954,-5.439059 0.114791,-0.221368 0.166999,-0.22614 0.513548,-0.04693 1.053902,0.544993 3.424149,3.147539 3.901321,4.28367 0.597275,1.422102 0.922175,3.15311 0.930292,4.956459 0.0072,1.600115 0.03375,1.789355 0.251027,1.789355 0.180373,0 0.267369,-0.162702 0.337676,-0.631538 0.05209,-0.347346 0.169776,-0.630789 0.261532,-0.62987 0.43881,0.0045 1.711646,0.434433 2.291404,0.774191 1.719244,1.007546 2.437637,2.225465 3.267486,5.539514 0.299587,1.196408 0.614101,2.353076 0.69892,2.570368 0.214966,0.550701 0.205983,0.588761 -0.265787,1.126077 -0.535411,0.609799 -1.464708,1.005186 -2.851457,1.213208 -1.537942,0.230702 -2.631564,0.0234 -4.627743,-0.877263 -0.944054,-0.425948 -1.336939,-0.409189 -1.151895,0.04912 0.08638,0.21396 1.457112,0.853584 2.404451,1.121993 0.51633,0.146288 0.590294,0.221171 0.665074,0.67331 0.04629,0.279793 0.08484,0.714467 0.08568,0.965943 l 0.0016,0.457228 -0.96327,-0.640534 c -0.776209,-0.516143 -1.146395,-0.666463 -1.906265,-0.774074 -0.98289,-0.139202 -1.200367,-0.100658 -1.200367,0.212736 0,0.229067 0.308386,0.357587 0.858034,0.357587 0.555517,0 1.188429,0.278692 2.372617,1.044739 1.541971,0.997495 2.151497,0.862948 3.966922,-0.87565 0.634117,-0.607283 1.279875,-1.172087 1.435019,-1.255118 0.388199,-0.207756 1.016987,-0.06251 1.26553,0.29234 0.288297,0.411603 0.26405,0.478056 -0.21264,0.582755 -0.483333,0.106158 -0.815795,0.526711 -1.2762,1.614349 -1.001518,2.365932 -3.263781,4.940945 -4.519926,5.144791 -0.693801,0.112594 -2.043398,-0.281557 -4.027555,-1.176234 -1.894085,-0.85406 -2.962374,-1.054247 -3.059283,-0.573276 -0.03614,0.179224 0.08358,0.259224 0.487157,0.325623 0.562128,0.09248 0.998322,0.257881 3.061178,1.160729 0.694693,0.304047 1.591393,0.630235 1.992672,0.72486 l 0.729594,0.172052 -0.349742,0.794693 c -0.591495,1.344007 -1.20547,2.259964 -2.302352,3.434769 -1.081053,1.157847 -3.487787,3.251631 -3.604026,3.13539 -0.03581,-0.03581 0.08463,-0.30791 0.267669,-0.604654 0.957085,-1.551713 1.440778,-3.313753 1.35011,-4.918316 -0.169418,-2.998331 -3.043305,-5.213667 -7.000963,-5.396702 -0.969794,-0.04486 -1.047211,-0.02768 -1.047211,0.232252 0,0.251538 0.127712,0.291318 1.229947,0.383125 3.025831,0.252022 5.284538,1.679626 6.018708,3.804093 0.478225,1.383825 0.241837,2.883006 -0.778134,4.934982 -0.749496,1.507836 -1.737551,2.657016 -2.969468,3.453712 -0.497603,0.321809 -0.904735,0.672607 -0.904735,0.779552 0,0.34897 0.724727,0.495671 2.105125,0.426114 1.865016,-0.09397 2.241863,-0.243373 3.412474,-1.352887 1.366642,-1.295307 2.240566,-1.832905 2.979599,-1.832905 0.632225,0 1.467053,0.239496 1.467053,0.420869 0,0.198226 -1.612909,1.518093 -2.553282,2.089388 -1.781197,1.082115 -4.97277,2.667997 -6.077723,3.020001 -3.218942,1.02546 -7.87901,1.463635 -10.595789,0.996302 l 0,0 z"
       id="path3765"
       inkscape:connector-curvature="0" />
  </g>
  <g
     inkscape:groupmode="layer"
     id="layer5"
     inkscape:label="text"
     transform="translate(-1.5152292,1.0101525)">
    <text
       xml:space="preserve"
       style="font-size:34.62352753px;font-style:normal;font-weight:normal;line-height:0%;letter-spacing:0px;word-spacing:0px;fill:#808080;fill-opacity:1;stroke:none;font-family:Sans"
       x="58.931152"
       y="31.814983"
       id="text3768"
       sodipodi:linespacing="0%"><tspan
         sodipodi:role="line"
         id="tspan3770"
         x="58.931152"
         y="31.814983"
         style="font-size:17px;font-style:normal;font-variant:normal;font-weight:300;font-stretch:normal;text-align:start;line-height:0%;writing-mode:lr-tb;text-anchor:start;fill:#1a1a1a;fill-opacity:1;font-family:Roboto;-inkscape-font-specification:Roboto Light"> СПОРТ-ЮНИОР</tspan></text>
    <path
       style="fill:#e6e6e6;fill-opacity:0;stroke:#000000;stroke-width:1.60081339px;stroke-linecap:butt;stroke-linejoin:miter;stroke-opacity:0.1372549"
       d="m 57.515636,9.3163202 0,32.7217148"
       id="path2997"
       inkscape:connector-curvature="0" />
  </g>
</svg>
